<?xml version="1.0" encoding="UTF-8"?>
<svg id="Layer_2" data-name="Layer 2" xmlns="http://www.w3.org/2000/svg" viewBox="0 0 34.42 36">
  <defs>
    <style>
      .cls-1 {
        stroke-width: 0px;
      }
    </style>
  </defs>
  <g id="Layer_1-2" data-name="Layer 1">
    <g>
      <path class="cls-1" d="m32.14,17.61c0,1.76-.17,3.14-.52,4.5-.29,1.09-.68,2.14-1.19,3.15-.4.79-.84,1.56-1.4,2.26-.44.55-.9,1.08-1.36,1.6-.52.58-1.1,1.09-1.74,1.54-.4.28-.79.56-1.2.81-.48.28-.97.56-1.47.78-.64.28-1.31.53-1.98.75-1.74.59-3.53.69-5.34.54-.83-.07-1.65-.22-2.46-.42-.71-.18-1.41-.46-2.09-.74-.49-.2-.97-.46-1.43-.73-.79-.47-1.55-.99-2.24-1.6-.53-.47-1.04-.97-1.51-1.5-.85-.95-1.56-2-2.14-3.13-.48-.93-.87-1.9-1.16-2.9-.47-1.63-.67-3.29-.63-4.98.05-1.83.37-3.6,1.05-5.3.31-.76.67-1.5,1.05-2.24.45-.87,1.01-1.67,1.68-2.39.48-.52.98-1.02,1.48-1.52.64-.62,1.35-1.14,2.13-1.58.48-.27.99-.52,1.47-.79.68-.38,1.42-.57,2.16-.8,1.76-.55,3.56-.65,5.39-.47.68.07,1.37.17,2.04.34.79.21,1.55.5,2.31.79.45.17.87.41,1.29.65.48.28.94.58,1.39.89.3.2.59.43.85.67.56.53,1.13,1.05,1.65,1.62.43.47.82.99,1.18,1.52,1.17,1.73,1.97,3.61,2.4,5.65.23,1.11.35,2.23.35,3Zm-6.41,7.35c-.01-1.44-.6-2.62-1.7-3.55-.44-.37-.98-.6-1.53-.75-.79-.22-1.58-.2-2.36.11-.63.25-1.21.55-1.65,1.06-.3.35-.6.72-.8,1.13-.61,1.28-.65,2.59-.07,3.9.55,1.25,1.49,2.07,2.79,2.45.85.25,1.7.21,2.54-.14.83-.34,1.49-.85,1.99-1.59.53-.78.78-1.64.79-2.6ZM8.71,11.02c0,.18-.02.36,0,.53.15,1.23.71,2.24,1.66,3.03.46.39,1.01.63,1.58.78.78.2,1.56.18,2.34-.12.87-.33,1.57-.85,2.1-1.62.52-.75.78-1.58.8-2.48.03-1.51-.56-2.75-1.71-3.71-.47-.39-1.04-.63-1.63-.77-.75-.18-1.5-.15-2.24.13-.87.33-1.57.84-2.11,1.61-.55.79-.81,1.66-.79,2.62Zm15,6.64c.18-.03.42-.07.66-.12.65-.13,1.25-.35,1.78-.77.43-.34.8-.73,1.08-1.19.63-1.04.83-2.18.57-3.37-.33-1.52-1.21-2.62-2.64-3.2-1.1-.45-2.23-.42-3.32.14-.73.37-1.32.89-1.75,1.58-.56.9-.78,1.88-.67,2.94.15,1.38.8,2.46,1.92,3.25.68.48,1.48.66,2.37.74Zm-13.31.73c-.65.01-1.57.31-2.35,1-.41.36-.76.78-1,1.26-.64,1.25-.73,2.54-.21,3.86.47,1.22,1.33,2.07,2.54,2.52,1.08.4,2.16.35,3.21-.19.73-.38,1.31-.89,1.74-1.59.63-1.02.84-2.13.61-3.3-.25-1.31-.95-2.32-2.09-3.01-.63-.38-1.34-.54-2.45-.54Zm8.61-.29c0-1.1-.83-1.96-1.89-1.96-1.06,0-1.89.86-1.89,1.96,0,1.12.91,1.99,1.89,1.99.97,0,1.91-.88,1.89-1.99Z"/>
      <path class="cls-1" d="m33.3,15.8c-.08-.43-.13-.87-.23-1.3-.17-.71-.34-1.42-.56-2.11-.35-1.13-.83-2.2-1.45-3.21-.31-.5-.61-1-.96-1.47-.4-.54-.83-1.04-1.26-1.55-.5-.59-1.06-1.11-1.67-1.58-.02-.02-.04-.04-.09-.09.58.15,1.13.29,1.67.44.3.08.6.14.89.24.67.23,1.38.4,2,.74,1.28.71,2.12,1.82,2.54,3.24.35,1.18.29,2.34-.04,3.51-.27.98-.5,1.97-.75,2.95-.02.07-.04.14-.06.21-.01,0-.02,0-.03,0Z"/>
      <path class="cls-1" d="m30.16,28.33c-.11.45-.23.91-.35,1.36-.23.88-.45,1.76-.7,2.63-.09.3-.22.6-.37.88-.28.49-.61.95-1.03,1.34-.78.74-1.68,1.22-2.74,1.39-.88.15-1.74.05-2.59-.2-.29-.08-.59-.15-.89-.24-.64-.19-1.29-.38-1.97-.58.29-.05.56-.08.81-.16.92-.27,1.84-.53,2.74-.85.53-.19,1.03-.46,1.53-.72.44-.24.87-.51,1.29-.78.31-.2.62-.42.91-.66.63-.54,1.26-1.08,1.85-1.67.46-.46.86-.99,1.28-1.49.07-.09.13-.19.19-.28.01,0,.03.01.04.02Z"/>
      <path class="cls-1" d="m4.38,7.19c.12-.49.24-.98.37-1.46.18-.67.35-1.34.54-2.01.15-.53.41-1,.73-1.45.48-.68,1.09-1.2,1.81-1.62C8.8.08,9.84-.1,10.92.05c.72.1,1.42.31,2.13.49.58.15,1.16.34,1.76.52-.39.07-.76.12-1.11.22-.83.24-1.66.47-2.47.76-.56.2-1.09.48-1.62.76-.45.24-.9.49-1.31.79-.67.49-1.33.99-1.95,1.54-.53.47-1,1.02-1.49,1.54-.16.17-.28.36-.43.54-.02,0-.03-.01-.05-.02Z"/>
      <path class="cls-1" d="m.96,20.75c.27,1.6.67,3.11,1.35,4.52.37.77.79,1.52,1.23,2.26.52.87,1.14,1.67,1.85,2.38.49.49.99.95,1.49,1.42.02.02.06.04.09.05,0,.01-.02.03-.03.04-.56-.15-1.13-.28-1.68-.45-.82-.25-1.69-.4-2.44-.83-1.28-.74-2.15-1.84-2.58-3.26-.36-1.18-.3-2.35.04-3.53.23-.81.42-1.64.63-2.46,0-.03.02-.06.06-.16Z"/>
    </g>
  </g>
</svg>