<svg width="19" height="19" viewBox="0 0 19 19" fill="none" xmlns="http://www.w3.org/2000/svg">
<path d="M10.1963 7.87879V13.0675H8.64406V7.87879H10.1963ZM10.3592 6.44592C10.3592 6.56894 10.3338 6.68473 10.2832 6.79328C10.2325 6.90183 10.1638 6.99953 10.0769 7.08637C9.99009 7.16597 9.88878 7.2311 9.77299 7.28176C9.66444 7.32518 9.54503 7.34689 9.41477 7.34689C9.29175 7.34689 9.17234 7.32518 9.05655 7.28176C8.948 7.2311 8.85031 7.16597 8.76346 7.08637C8.67662 6.99953 8.60787 6.90183 8.55722 6.79328C8.50656 6.68473 8.48123 6.56894 8.48123 6.44592C8.48123 6.31566 8.50656 6.19625 8.55722 6.0877C8.60787 5.97915 8.67662 5.88507 8.76346 5.80547C8.85031 5.71862 8.948 5.65349 9.05655 5.61007C9.17234 5.55942 9.29175 5.53409 9.41477 5.53409C9.54503 5.53409 9.66444 5.55942 9.77299 5.61007C9.88878 5.65349 9.99009 5.71862 10.0769 5.80547C10.1638 5.88507 10.2325 5.97915 10.2832 6.0877C10.3338 6.19625 10.3592 6.31566 10.3592 6.44592Z" fill="#414042"/>
<path d="M9.38804 17.7761C14.0206 17.7761 17.7761 14.0206 17.7761 9.38804C17.7761 4.75545 14.0206 1 9.38804 1C4.75545 1 1 4.75545 1 9.38804C1 14.0206 4.75545 17.7761 9.38804 17.7761Z" stroke="#414042" stroke-miterlimit="10"/>
</svg>
