<svg width="24" height="17" viewBox="0 0 24 17" fill="none" xmlns="http://www.w3.org/2000/svg">
<g clip-path="url(#clip0_18_37)">
<path d="M15.403 14.6866C18.3704 14.6866 20.9673 14.6908 23.342 14.6866C23.5294 14.6866 23.7778 14.653 23.9085 14.4893C24.0392 14.3297 24.0131 14.0946 23.9651 13.9224C23.6645 12.7594 23.342 11.5209 23.0022 10.3201C22.719 9.30403 22.0828 8.52309 21.1068 7.99407L20.5272 7.67078C20.5272 7.67078 20.5054 7.64979 20.5011 7.6372C20.5011 7.6246 20.5011 7.6078 20.5098 7.59521L20.6449 7.40627C22.3922 4.9711 22.3573 2.80464 20.5447 1.15041C18.9717 -0.285502 16.4837 -0.390466 14.7582 0.906891C13.8649 1.57866 13.3159 2.45196 13.1242 3.50161C12.8584 4.95851 13.2723 6.22648 14.3878 7.38528L14.5969 7.59941C14.5969 7.59941 14.6144 7.6288 14.61 7.64559C14.61 7.66239 14.5969 7.67498 14.5795 7.68338L14.3007 7.80094C12.9063 8.39714 12.0915 9.46357 11.8083 11.0632L11.7473 11.3991C11.7473 11.3991 11.7298 11.4327 11.7124 11.4369C11.695 11.4453 11.6732 11.4411 11.6601 11.4285L9.50762 9.90442C9.50762 9.90442 9.48584 9.88343 9.48584 9.86663C9.48584 9.84984 9.48584 9.83724 9.49891 9.82465L9.66013 9.65251C11.6035 7.59101 11.1111 4.9837 9.66013 3.58138C8.81046 2.76266 7.68627 2.30921 6.48366 2.30921C5.4902 2.30921 4.55338 2.61991 3.77342 3.20351C2.84967 3.89627 2.28758 4.79476 2.10457 5.878C1.86057 7.30131 2.27887 8.55248 3.37691 9.70289L3.57734 9.91282C3.57734 9.91282 3.59477 9.94221 3.59041 9.959C3.59041 9.9758 3.57734 9.98839 3.55991 9.99679L3.29412 10.1185C2.07407 10.677 1.32898 11.4789 1.01525 12.5747C0.662309 13.8049 0.331154 15.0897 0.0392153 16.2191L0.0261434 16.2694C-0.0348588 16.5004 -0.0130723 16.6893 0.0915028 16.8111C0.187363 16.9328 0.361655 16.9958 0.592592 16.9958C4.58823 17.0042 8.55773 17.0042 12.4009 16.9958C12.6275 16.9958 12.7974 16.9328 12.8932 16.8111C12.9978 16.6851 13.0196 16.492 12.963 16.2611C12.8758 15.921 12.7887 15.5851 12.6972 15.2492V15.2282C12.5882 14.8377 12.4793 14.4347 12.3791 14.04C12.3224 13.8175 12.2745 13.553 12.3355 13.3095C12.5752 12.3522 12.8105 11.4117 13.1024 10.4796C13.4466 9.367 14.4837 8.60706 15.6819 8.58607C17.0763 8.56088 18.2309 8.56088 19.3159 8.58607C20.4662 8.61546 21.3464 9.16967 21.7298 10.1018C22.0174 10.8029 22.2135 11.5251 22.4183 12.2892C22.5098 12.6209 22.6013 12.961 22.6972 13.2969L22.7756 13.5656C22.7756 13.5656 22.7756 13.5992 22.7669 13.6118C22.7582 13.6244 22.7407 13.6327 22.7233 13.6327H19.2636C17.9782 13.6327 16.6885 13.6327 15.403 13.6327C15.1634 13.6327 14.976 13.6915 14.8627 13.8049C14.7712 13.8931 14.7277 14.019 14.732 14.1744C14.7407 14.5102 14.963 14.6824 15.3987 14.6824L15.403 14.6866ZM17.5076 7.51963C15.6558 7.51963 14.1438 6.06693 14.1394 4.28674C14.1394 3.43443 14.488 2.62411 15.1285 2.00692C15.7734 1.38133 16.6187 1.04125 17.512 1.03705C18.4052 1.03705 19.2462 1.38133 19.8911 2.00272C20.5316 2.62411 20.8845 3.43443 20.8802 4.29094C20.8715 6.07113 19.3638 7.52383 17.5163 7.52383L17.5076 7.51963Z" fill="#414141"/>
</g>
<defs>
<clipPath id="clip0_18_37">
<rect width="24" height="17" fill="white"/>
</clipPath>
</defs>
</svg>
