<svg width="20" height="17" viewBox="0 0 20 17" fill="none" xmlns="http://www.w3.org/2000/svg">
<path d="M4.20994 15.6213H7.02332C7.02332 14.6896 7.02332 13.7804 7.02332 12.8712C7.02332 12.0827 7.19362 11.3507 7.71574 10.7348C8.53589 9.76579 9.77844 9.42287 10.9381 9.84362C12.0966 10.2644 12.8652 11.3507 12.8887 12.6434C12.9055 13.6146 12.8921 14.5869 12.8921 15.6044H15.6741C15.6831 15.407 15.6988 15.2085 15.6999 15.0111C15.7021 13.0088 15.6999 11.0066 15.7021 9.00437C15.7021 8.83743 15.6584 8.62085 15.7425 8.51256C15.887 8.32869 16.1256 8.08842 16.3083 8.10196C16.4864 8.1155 16.7486 8.39637 16.7867 8.59603C16.864 8.99309 16.8136 9.41497 16.8136 9.8267C16.8136 11.8662 16.8158 13.9056 16.8136 15.9451C16.8136 16.6027 16.6545 16.764 15.9889 16.7685C14.8551 16.7753 13.7212 16.7764 12.5873 16.7685C11.933 16.764 11.7818 16.5993 11.7795 15.9282C11.7762 14.8802 11.784 13.8323 11.7773 12.7844C11.7694 11.6259 11.0064 10.7866 9.96891 10.7776C8.937 10.7686 8.15719 11.6022 8.14038 12.7641C8.12582 13.83 8.14038 14.8971 8.13478 15.9631C8.13142 16.5993 7.97344 16.7629 7.346 16.7674C6.19421 16.7753 5.04129 16.7764 3.88949 16.7674C3.27886 16.7618 3.0996 16.5745 3.09848 15.9518C3.09399 13.5943 3.0996 11.2367 3.09399 8.87916C3.09399 8.45954 3.19147 8.08391 3.66429 8.08053C4.15167 8.07714 4.21666 8.46405 4.21442 8.87916C4.20545 10.8994 4.20994 12.9209 4.20994 14.9411C4.20994 15.1453 4.20994 15.3506 4.20994 15.6202V15.6213Z" fill="#414042"/>
<path d="M0.489142 8.7448C0.306513 8.60718 0.0555385 8.51356 0.0196849 8.36692C-0.0296137 8.16838 0.0140828 7.85705 0.146293 7.72169C0.494744 7.36411 0.910422 7.07308 1.30257 6.75836C4.00055 4.59257 6.70749 2.4358 9.39315 0.25308C9.83011 -0.102246 10.1483 -0.0695332 10.5617 0.26436C13.5286 2.66253 16.5056 5.04716 19.4792 7.4363C19.5812 7.51752 19.682 7.60099 19.7772 7.6901C20.0316 7.93037 20.0797 8.21463 19.8613 8.48649C19.6349 8.76736 19.3447 8.75044 19.0736 8.53499C18.2579 7.88751 17.4456 7.23439 16.6333 6.58239C14.5594 4.91631 12.4799 3.25586 10.4172 1.57512C10.0811 1.30101 9.87381 1.31229 9.53096 1.59091C6.75903 3.84469 3.96694 6.07365 1.17708 8.30488C0.979888 8.4628 0.750201 8.58011 0.490263 8.7448H0.489142Z" fill="#414042"/>
</svg>
