<?xml version="1.0" encoding="UTF-8"?>
<svg id="Layer_2" data-name="Layer 2" xmlns="http://www.w3.org/2000/svg" viewBox="0 0 32.46 32.47">
  <defs>
    <style>
      .cls-1 {
        stroke-width: 0px;
      }
    </style>
  </defs>
  <g id="Layer_1-2" data-name="Layer 1">
    <g>
      <path class="cls-1" d="m16.25,32.47c-2.13-.04-4.26-.07-6.39-.12-1.37-.04-2.74-.19-4.03-.68-2.84-1.08-4.61-3.12-5.35-6.06-.23-.91-.33-1.84-.36-2.77-.04-1.17-.07-2.33-.09-3.5-.02-1.46-.04-2.92-.02-4.39.02-1.8.06-3.59.11-5.39.04-1.17.18-2.33.56-3.44C1.68,3.15,3.73,1.3,6.74.5c.86-.23,1.73-.33,2.62-.37C12.97-.04,16.59,0,20.2.03c1.03.01,2.07.05,3.1.11,1.33.08,2.65.3,3.87.86,2.52,1.15,4.1,3.08,4.79,5.76.22.87.33,1.75.37,2.65.16,3.52.13,7.04.1,10.57-.01,1.09-.05,2.17-.11,3.26-.07,1.37-.29,2.71-.87,3.96-1.17,2.56-3.16,4.14-5.89,4.8-.95.23-1.92.33-2.9.36-1.58.04-3.17.06-4.75.09-.56,0-1.12,0-1.67,0,0,.01,0,.02,0,.03Zm-.03-29.53s0-.01,0-.02c-1.17,0-2.33,0-3.5,0-1.57,0-3.14.06-4.7.31-1.42.23-2.61.85-3.54,1.95-.73.87-1.09,1.89-1.26,2.99-.2,1.33-.26,2.67-.28,4.01-.02,1.35,0,2.7,0,4.05,0,1.82,0,3.63.04,5.45.02,1.1.1,2.19.37,3.26.53,2.16,1.87,3.55,4.02,4.14.78.21,1.58.3,2.38.34,1.31.06,2.62.1,3.92.12.9.01,1.81-.02,2.71-.03,1.75,0,3.49,0,5.24-.03,1.01-.02,2.03-.12,3.03-.3,1.54-.28,2.78-1.04,3.68-2.33.58-.84.84-1.79.98-2.79.18-1.3.24-2.61.25-3.92,0-1.53,0-3.07,0-4.6-.01-1.76-.02-3.51-.07-5.27-.02-.87-.13-1.74-.3-2.6-.45-2.29-2.12-3.95-4.42-4.4-1.27-.25-2.56-.33-3.84-.35-1.56-.02-3.13,0-4.69,0Z"/>
      <path class="cls-1" d="m24.55,16.22c.02,4.48-3.56,8.29-8.26,8.33-4.59.03-8.37-3.61-8.37-8.31,0-4.86,3.94-8.29,8.23-8.33,4.54-.04,8.41,3.62,8.4,8.31Zm-8.32-5.39c-2.98,0-5.4,2.43-5.4,5.41,0,2.97,2.43,5.4,5.41,5.4,2.97,0,5.4-2.44,5.4-5.41,0-2.98-2.43-5.41-5.41-5.4Z"/>
      <path class="cls-1" d="m22.95,7.57c0-1.08.85-1.94,1.92-1.95,1.08,0,1.97.87,1.97,1.94,0,1.08-.88,1.95-1.96,1.94-1.08,0-1.93-.86-1.93-1.94Z"/>
    </g>
  </g>
</svg>