<svg width="19" height="19" viewBox="0 0 19 19" fill="none" xmlns="http://www.w3.org/2000/svg">
<path d="M6.8183 14.4992C6.74089 14.4897 6.66241 14.4823 6.58499 14.4706C5.69946 14.337 5.02604 13.881 4.56896 13.1131C4.27307 12.6158 4.16066 12.0717 4.2105 11.4969C4.26777 10.8267 4.5382 10.2519 5.01119 9.77466C5.42055 9.36212 5.83203 8.9517 6.24457 8.54128C6.40152 8.38433 6.61893 8.34615 6.81618 8.43523C6.99753 8.51689 7.11525 8.7099 7.10464 8.9167C7.09828 9.05457 7.03677 9.16804 6.94026 9.26561C6.53833 9.66648 6.13851 10.0695 5.73658 10.4704C5.41312 10.7927 5.22117 11.1798 5.20633 11.638C5.18193 12.3655 5.48948 12.9233 6.12261 13.2786C6.80876 13.6646 7.66035 13.5267 8.21818 12.9647C8.62223 12.5585 9.02735 12.1534 9.43246 11.7483C9.59048 11.5903 9.77925 11.5447 9.98817 11.6242C10.318 11.7515 10.4103 12.181 10.1632 12.4355C9.91394 12.6911 9.65941 12.9424 9.40701 13.1959C9.21082 13.3921 9.01992 13.5936 8.81631 13.7802C8.40483 14.1578 7.91805 14.3858 7.36553 14.4685C7.29023 14.4801 7.21387 14.4886 7.13752 14.4992H6.81936H6.8183Z" fill="#414042"/>
<path d="M14.6958 6.80945C14.6799 7.52 14.4147 8.17751 13.8771 8.71944C13.4698 9.12985 13.0605 9.53815 12.6511 9.94645C12.5079 10.0896 12.334 10.1363 12.1421 10.078C11.9586 10.0228 11.8377 9.89554 11.7985 9.70465C11.7603 9.51906 11.8165 9.36105 11.9501 9.22742C12.3605 8.817 12.7699 8.40765 13.1792 7.99617C13.7933 7.38001 13.8633 6.4001 13.3426 5.7044C12.8515 5.04794 11.9798 4.81569 11.23 5.14233C11.0126 5.23672 10.8249 5.37352 10.6573 5.54214C10.2575 5.94514 9.85559 6.34707 9.45366 6.74794C9.23519 6.96535 8.90219 6.95156 8.70494 6.72037C8.56071 6.55069 8.55223 6.28344 8.68797 6.10634C8.706 6.083 8.72403 6.06073 8.74418 6.04058C9.16838 5.61532 9.58941 5.18793 10.0179 4.76797C10.4145 4.37982 10.8917 4.13803 11.4379 4.03834C12.5281 3.8379 13.6268 4.30877 14.2376 5.2346C14.5431 5.69698 14.6894 6.20814 14.6968 6.81158L14.6958 6.80945Z" fill="#414042"/>
<path d="M10.7295 7.49987C10.9183 7.51578 11.0784 7.61759 11.1547 7.8212C11.2311 8.02164 11.1908 8.20723 11.0381 8.35994C10.2151 9.18502 9.39218 10.008 8.56922 10.832C8.42711 10.9741 8.25743 11.0229 8.06654 10.9688C7.88519 10.9179 7.76535 10.7949 7.71869 10.6114C7.67521 10.4407 7.71126 10.2816 7.83322 10.1533C8.00184 9.97616 8.17683 9.80542 8.34969 9.63256C9.00509 8.9761 9.66049 8.32177 10.3148 7.66425C10.423 7.55502 10.5492 7.49563 10.7295 7.49881V7.49987Z" fill="#414042"/>
<path d="M9.5 18C14.1944 18 18 14.1944 18 9.5C18 4.80558 14.1944 1 9.5 1C4.80558 1 1 4.80558 1 9.5C1 14.1944 4.80558 18 9.5 18Z" stroke="#414042" stroke-miterlimit="10"/>
</svg>
