<!DOCTYPE svg PUBLIC "-//W3C//DTD SVG 1.1//EN" "http://www.w3.org/Graphics/SVG/1.1/DTD/svg11.dtd">
<!-- Uploaded to: SVG Repo, www.svgrepo.com, Transformed by: SVG Repo Mixer Tools -->
<svg fill="#35a299" version="1.1" id="Capa_1" xmlns="http://www.w3.org/2000/svg" xmlns:xlink="http://www.w3.org/1999/xlink" width="800px" height="800px" viewBox="0 0 440 440" xml:space="preserve">
<g id="SVGRepo_bgCarrier" stroke-width="0"/>
<g id="SVGRepo_tracerCarrier" stroke-linecap="round" stroke-linejoin="round"/>
<g id="SVGRepo_iconCarrier"> <g> <g> <g> <path d="M268.881,290.663l-47.721-21.975l-22.927-19.333l-36.837,36.642h-0.027l15.896,106.272 c0.055,0.365-0.037,0.738-0.255,1.037l-16.622,22.75c-0.265,0.363-0.687,0.578-1.136,0.578c-0.45,0-0.871-0.215-1.136-0.578 l-16.621-22.75c-0.218-0.299-0.311-0.672-0.255-1.037l15.896-106.275h-0.024l-36.836-36.639l-22.926,19.333l-47.722,21.975 c-7.061,2.896-13.999,7.293-17.529,14.951c0,0-51.871,123.495-23.736,123.495h301.781c28.137,0-23.734-123.495-23.734-123.495 C283.336,298.267,275.941,293.558,268.881,290.663z"/> <path d="M412.094,31.436c-17.539-13.248-40.773-20.545-65.428-20.545c-24.652,0-47.891,7.297-65.428,20.545 c-17.996,13.595-27.906,31.809-27.906,51.292c0,16.65,7.457,32.728,21.061,45.52v49.522c0,1.99,1.09,3.824,2.84,4.777 c0.812,0.442,1.709,0.663,2.604,0.663c1.027,0,2.053-0.289,2.949-0.868l45.285-29.199c6.092,0.944,12.336,1.422,18.596,1.422 c24.654,0,47.889-7.296,65.428-20.547C430.09,120.423,440,102.209,440,82.728C440,63.244,430.09,45.03,412.094,31.436z M400.039,118.06c-14.088,10.644-33.043,16.505-53.373,16.505c-5.232,0-10.457-0.398-15.531-1.186l-7.514-1.165l-6.389,4.12 l-22.84,14.727v-22.813v-8.646l-6.299-5.923c-9.52-8.953-14.764-19.944-14.764-30.95c0-13.061,7.09-25.609,19.961-35.333 c14.088-10.643,33.043-16.504,53.373-16.504s39.285,5.861,53.373,16.503c12.873,9.723,19.961,22.271,19.961,35.333 C420,95.787,412.91,108.335,400.039,118.06z"/> <path d="M159.253,259.182c36.399,0,85.229-45.474,86.057-121.73c0.527-52.916-24.673-84.584-86.057-84.584 c-61.387,0-86.593,31.668-86.056,84.584C74.026,213.708,116.652,259.182,159.253,259.182z M141.957,158.703 c44.506,4.74,83.303-57.5,82.674-1.772c-0.377,33.36-31.321,83.733-65.372,83.733c-35.738,0-60.395-41.864-65.37-83.715 C88.498,111.563,171.8,121.903,141.957,158.703z"/> </g> </g> </g> </g>
</svg>