<?xml version="1.0" encoding="UTF-8"?>
<svg id="Layer_2" data-name="Layer 2" xmlns="http://www.w3.org/2000/svg" viewBox="0 0 27.36 25.81">
  <defs>
    <style>
      .cls-1 {
        stroke-width: 0px;
      }
    </style>
  </defs>
  <g id="Layer_1-2" data-name="Layer 1">
    <path class="cls-1" d="m.05,0C.92,0,1.79,0,2.66,0c1.75,0,3.51,0,5.26,0,.17,0,.26.06.35.19,2.16,2.85,4.32,5.7,6.48,8.55.12.15.25.3.39.47.1-.09.19-.17.26-.25,1.83-1.95,3.66-3.89,5.49-5.85.92-.98,1.83-1.98,2.75-2.96.07-.08.2-.14.31-.14.72-.01,1.45,0,2.23,0-3.34,3.61-6.65,7.18-9.98,10.77,3.7,4.94,7.41,9.9,11.16,14.91-.13.02-.19.04-.25.04-1.51.03-3.01.06-4.52.08-1.05.01-2.1,0-3.15,0-.15,0-.25-.05-.34-.17-2.16-2.86-4.31-5.72-6.48-8.58-.24-.31-.5-.6-.75-.9-.09-.11-.17-.24-.26-.38-.26.28-.45.47-.63.66-2.84,3.07-5.68,6.13-8.51,9.2-.12.13-.23.18-.41.18-.63-.02-1.26-.03-1.89-.04-.04,0-.08-.01-.16-.02.08-.09.13-.17.19-.23,2.26-2.46,4.52-4.92,6.78-7.38,1.13-1.23,2.25-2.46,3.38-3.68.13-.14.15-.24.03-.4-1.42-1.93-2.83-3.87-4.26-5.79C4.14,5.6,2.15,2.94.16.27.12.21.07.15.03.08c0-.03.01-.05.02-.08Zm3.61,1.86s-.02.05-.02.08c.21.28.41.57.63.85,3.89,5.2,7.77,10.41,11.66,15.61,1.36,1.82,2.71,3.63,4.07,5.44.06.08.17.16.25.16,1.02,0,2.04-.01,3.06-.03.13,0,.26-.04.43-.07-.2-.28-.37-.53-.55-.76-3.94-5.28-7.88-10.56-11.82-15.84-1.34-1.79-2.68-3.58-4.03-5.37-.05-.07-.15-.15-.23-.15-.96,0-1.91,0-2.87,0-.2,0-.39.04-.59.07Z"/>
  </g>
</svg>