<?xml version="1.0" encoding="UTF-8"?>
<svg id="Layer_2" data-name="Layer 2" xmlns="http://www.w3.org/2000/svg" viewBox="0 0 32.08 32.19">
  <defs>
    <style>
      .cls-1 {
        stroke-width: 0px;
      }
    </style>
  </defs>
  <g id="Layer_1-2" data-name="Layer 1">
    <g>
      <path class="cls-1" d="m.13,32.19h-.13s.04-.07.05-.11c.71-2.61,1.43-5.22,2.14-7.83.06-.21.05-.39-.06-.59C.41,20.5-.2,17.13.34,13.59c.58-3.85,2.34-7.1,5.31-9.63C9.82.39,14.64-.78,19.98.51c4.41,1.06,7.74,3.67,9.98,7.59,2.29,4.02,2.72,8.3,1.32,12.7-1.36,4.28-4.12,7.43-8.12,9.45-2.83,1.43-5.85,1.9-9,1.54-1.91-.22-3.71-.79-5.42-1.68-.15-.08-.36-.1-.52-.06-1.88.48-3.77.97-5.64,1.46-.82.22-1.63.45-2.44.68Zm3.72-3.81c.14-.03.22-.04.3-.06,1.49-.39,2.97-.78,4.46-1.16.15-.04.36,0,.49.07,2.93,1.75,6.08,2.39,9.44,1.75,3.64-.69,6.5-2.61,8.56-5.66,1.97-2.91,2.65-6.14,2.06-9.61-.56-3.31-2.18-6.02-4.79-8.11-2.96-2.36-6.34-3.26-10.09-2.78-2.07.26-3.96,1.02-5.68,2.2-2.02,1.39-3.55,3.21-4.57,5.44-1.24,2.71-1.5,5.53-.87,8.43.35,1.58,1,3.03,1.86,4.4.08.12.1.32.06.46-.13.54-.28,1.07-.43,1.6-.27.99-.54,1.97-.82,3.02Z"/>
      <path class="cls-1" d="m10.84,8.4c.67-.16,1.02.28,1.27.94.35.93.75,1.85,1.15,2.77.14.33.15.63-.05.91-.31.44-.64.86-.98,1.28-.26.32-.3.51-.09.87,1.34,2.24,3.2,3.89,5.64,4.85.35.14.61.05.83-.22.4-.49.8-.99,1.19-1.48.3-.38.49-.46.92-.27,1.11.51,2.21,1.05,3.32,1.58.28.14.37.37.37.69-.01,2.12-1.55,3.16-3.3,3.46-1.45.25-2.77-.3-4.09-.81-2.39-.93-4.32-2.49-5.98-4.42-.89-1.03-1.75-2.1-2.41-3.31-.79-1.46-1.14-2.99-.55-4.62.28-.77.76-1.39,1.37-1.92.3-.26.59-.32,1.4-.3Z"/>
    </g>
  </g>
</svg>