<?xml version="1.0" encoding="UTF-8"?>
<svg id="Layer_2" data-name="Layer 2" xmlns="http://www.w3.org/2000/svg" viewBox="0 0 33.24 23.36">
  <defs>
    <style>
      .cls-1 {
        stroke-width: 0px;
      }
    </style>
  </defs>
  <g id="Layer_1-2" data-name="Layer 1">
    <path class="cls-1" d="m16.1,23.36c-2.21-.05-4.42-.08-6.63-.17-1.36-.05-2.73-.16-4.09-.28-.56-.05-1.11-.13-1.65-.27-1.58-.41-2.61-1.43-3.03-3-.19-.73-.31-1.49-.39-2.24C.05,15.15-.03,12.89.01,10.62c.03-1.72.12-3.43.35-5.14.08-.6.17-1.21.33-1.79.48-1.73,1.63-2.76,3.39-3.09,1.16-.22,2.33-.29,3.51-.36C10.19.08,12.8.03,15.41,0c2.72-.02,5.45,0,8.17.14,1.49.07,2.97.17,4.46.3.56.05,1.14.13,1.68.3,1.52.47,2.47,1.5,2.87,3.03.22.83.31,1.68.4,2.53.19,1.79.25,3.6.26,5.4,0,1.49-.06,2.98-.18,4.46-.08.96-.18,1.93-.36,2.88-.13.71-.34,1.38-.77,1.97-.71.99-1.68,1.58-2.88,1.75-.92.13-1.84.22-2.77.29-2.27.18-4.55.22-6.82.27-1.12.02-2.24,0-3.36,0v.04Zm5.82-11.69c-2.88-1.67-5.71-3.31-8.58-4.97v9.93c2.87-1.66,5.69-3.29,8.58-4.96Z"/>
  </g>
</svg>